<svg width="80" height="30" viewBox="0 0 80 30" fill="none" xmlns="http://www.w3.org/2000/svg">
<path d="M17.3269 16.3118C18.1105 13.0507 16.0556 9.78278 12.7373 9.01274C9.419 8.2427 6.09377 10.2621 5.31022 13.5232C4.52667 16.7843 6.58152 20.0522 9.89984 20.8223C13.2182 21.5923 16.5434 19.5729 17.3269 16.3118Z" fill="#01D28E"/>
<path d="M11.6872 3.8147e-06C20.0402 3.8147e-06 26.8337 6.67925 26.8337 14.8853C26.8337 23.0943 20.0373 29.7707 11.6872 29.7707C7.15139 29.7707 2.88907 27.7978 7.62939e-06 24.3552L4.51544 20.6925C6.2902 22.8055 8.90286 24.0178 11.6872 24.0178C16.8107 24.0178 20.9799 19.9205 20.9799 14.8853C20.9799 9.85018 16.8107 5.75285 11.6872 5.75285C9.09488 5.75285 6.68879 6.77647 4.91404 8.63213L0.648815 4.69205C3.50006 1.7127 7.52379 3.8147e-06 11.6872 3.8147e-06Z" fill="white"/>
<path d="M39.5804 23H36.8444L32.2684 16.072V23H29.5324V11.768H32.2684L36.8444 18.728V11.768H39.5804V23Z" fill="white"/>
<path d="M41.2497 17.368C41.2497 16.2587 41.4897 15.272 41.9697 14.408C42.4497 13.5333 43.1164 12.856 43.9697 12.376C44.8337 11.8853 45.8097 11.64 46.8977 11.64C48.231 11.64 49.3724 11.992 50.3217 12.696C51.271 13.4 51.9057 14.36 52.2257 15.576H49.2177C48.9937 15.1067 48.6737 14.7493 48.2577 14.504C47.8524 14.2587 47.3884 14.136 46.8657 14.136C46.023 14.136 45.3404 14.4293 44.8177 15.016C44.295 15.6027 44.0337 16.3867 44.0337 17.368C44.0337 18.3493 44.295 19.1333 44.8177 19.72C45.3404 20.3067 46.023 20.6 46.8657 20.6C47.3884 20.6 47.8524 20.4773 48.2577 20.232C48.6737 19.9867 48.9937 19.6293 49.2177 19.16H52.2257C51.9057 20.376 51.271 21.336 50.3217 22.04C49.3724 22.7333 48.231 23.08 46.8977 23.08C45.8097 23.08 44.8337 22.84 43.9697 22.36C43.1164 21.8693 42.4497 21.192 41.9697 20.328C41.4897 19.464 41.2497 18.4773 41.2497 17.368ZM61.0432 21.016H56.8512L56.1792 23H53.3152L57.3792 11.768H60.5472L64.6112 23H61.7152L61.0432 21.016ZM60.3392 18.904L58.9472 14.792L57.5712 18.904H60.3392ZM71.7261 23L69.3901 18.76H68.7341V23H65.9981V11.768H70.5901C71.4754 11.768 72.2274 11.9227 72.8461 12.232C73.4754 12.5413 73.9447 12.968 74.2541 13.512C74.5634 14.0453 74.7181 14.6427 74.7181 15.304C74.7181 16.0507 74.5047 16.7173 74.0781 17.304C73.6621 17.8907 73.0434 18.3067 72.2221 18.552L74.8141 23H71.7261ZM68.7341 16.824H70.4301C70.9314 16.824 71.3047 16.7013 71.5501 16.456C71.8061 16.2107 71.9341 15.864 71.9341 15.416C71.9341 14.9893 71.8061 14.6533 71.5501 14.408C71.3047 14.1627 70.9314 14.04 70.4301 14.04H68.7341V16.824Z" fill="#01D28E"/>
</svg>
